<?xml version="1.0" encoding="utf-8"?>
<svg xmlns="http://www.w3.org/2000/svg" xmlns:xlink="http://www.w3.org/1999/xlink" style="margin: auto; background: rgba(255, 255, 255, 0); display: block; shape-rendering: auto;" width="150px" height="150px" viewBox="0 0 100 100" preserveAspectRatio="xMidYMid">
<g transform="rotate(0 50 50)">
  <rect x="47" y="24" rx="3" ry="6" width="6" height="12" fill="#62dafc">
    <animate attributeName="opacity" values="1;0" keyTimes="0;1" dur="0.47846889952153115s" begin="-0.4385964912280702s" repeatCount="indefinite"></animate>
  </rect>
</g><g transform="rotate(30 50 50)">
  <rect x="47" y="24" rx="3" ry="6" width="6" height="12" fill="#62dafc">
    <animate attributeName="opacity" values="1;0" keyTimes="0;1" dur="0.47846889952153115s" begin="-0.39872408293460926s" repeatCount="indefinite"></animate>
  </rect>
</g><g transform="rotate(60 50 50)">
  <rect x="47" y="24" rx="3" ry="6" width="6" height="12" fill="#62dafc">
    <animate attributeName="opacity" values="1;0" keyTimes="0;1" dur="0.47846889952153115s" begin="-0.35885167464114837s" repeatCount="indefinite"></animate>
  </rect>
</g><g transform="rotate(90 50 50)">
  <rect x="47" y="24" rx="3" ry="6" width="6" height="12" fill="#62dafc">
    <animate attributeName="opacity" values="1;0" keyTimes="0;1" dur="0.47846889952153115s" begin="-0.3189792663476874s" repeatCount="indefinite"></animate>
  </rect>
</g><g transform="rotate(120 50 50)">
  <rect x="47" y="24" rx="3" ry="6" width="6" height="12" fill="#62dafc">
    <animate attributeName="opacity" values="1;0" keyTimes="0;1" dur="0.47846889952153115s" begin="-0.27910685805422647s" repeatCount="indefinite"></animate>
  </rect>
</g><g transform="rotate(150 50 50)">
  <rect x="47" y="24" rx="3" ry="6" width="6" height="12" fill="#62dafc">
    <animate attributeName="opacity" values="1;0" keyTimes="0;1" dur="0.47846889952153115s" begin="-0.23923444976076558s" repeatCount="indefinite"></animate>
  </rect>
</g><g transform="rotate(180 50 50)">
  <rect x="47" y="24" rx="3" ry="6" width="6" height="12" fill="#62dafc">
    <animate attributeName="opacity" values="1;0" keyTimes="0;1" dur="0.47846889952153115s" begin="-0.19936204146730463s" repeatCount="indefinite"></animate>
  </rect>
</g><g transform="rotate(210 50 50)">
  <rect x="47" y="24" rx="3" ry="6" width="6" height="12" fill="#62dafc">
    <animate attributeName="opacity" values="1;0" keyTimes="0;1" dur="0.47846889952153115s" begin="-0.1594896331738437s" repeatCount="indefinite"></animate>
  </rect>
</g><g transform="rotate(240 50 50)">
  <rect x="47" y="24" rx="3" ry="6" width="6" height="12" fill="#62dafc">
    <animate attributeName="opacity" values="1;0" keyTimes="0;1" dur="0.47846889952153115s" begin="-0.11961722488038279s" repeatCount="indefinite"></animate>
  </rect>
</g><g transform="rotate(270 50 50)">
  <rect x="47" y="24" rx="3" ry="6" width="6" height="12" fill="#62dafc">
    <animate attributeName="opacity" values="1;0" keyTimes="0;1" dur="0.47846889952153115s" begin="-0.07974481658692185s" repeatCount="indefinite"></animate>
  </rect>
</g><g transform="rotate(300 50 50)">
  <rect x="47" y="24" rx="3" ry="6" width="6" height="12" fill="#62dafc">
    <animate attributeName="opacity" values="1;0" keyTimes="0;1" dur="0.47846889952153115s" begin="-0.03987240829346093s" repeatCount="indefinite"></animate>
  </rect>
</g><g transform="rotate(330 50 50)">
  <rect x="47" y="24" rx="3" ry="6" width="6" height="12" fill="#62dafc">
    <animate attributeName="opacity" values="1;0" keyTimes="0;1" dur="0.47846889952153115s" begin="0s" repeatCount="indefinite"></animate>
  </rect>
</g>
<!-- [ldio] generated by https://loading.io/ --></svg>